<?xml version="1.0" encoding="UTF-8"?>
<svg id="Layer_1" data-name="Layer 1" xmlns="http://www.w3.org/2000/svg" viewBox="0 0 512 512">
  <defs>
    <style>
      .cls-1 {
        fill: #7372ab;
      }

      .cls-2 {
        fill: #7a99cf;
      }

      .cls-3 {
        fill: #171020;
      }

      .cls-4 {
        fill: #4d2c7b;
      }

      .cls-5 {
        fill: #d71b5a;
      }
    </style>
  </defs>
  <rect class="cls-3" width="512" height="512"/>
  <g>
    <polygon class="cls-5" points="245.33 182.1 224 145.15 96 145.15 32 256 42.67 274.48 234.67 274.47 202.67 329.9 117.33 329.9 138.67 366.85 224 366.85 288 256 277.33 237.52 85.33 237.52 117.33 182.1 245.33 182.1"/>
    <polygon class="cls-2" points="437.33 292.95 416 256 288 256 224 366.85 234.67 385.32 426.67 385.32 394.67 440.75 309.33 440.75 330.67 477.7 416 477.7 480 366.85 469.33 348.37 277.33 348.37 309.33 292.95 437.33 292.95"/>
    <polygon class="cls-4" points="160 477.7 74.67 329.9 117.33 329.9 181.33 440.75 266.67 440.75 251.67 414.77 294.33 414.77 330.67 477.7 160 477.7"/>
    <path class="cls-1" d="M224.01,145.15l10.66,18.47,53.33,92.38h128s64-110.85,64-110.85l-10.67-18.48-32-55.42-21.33-36.95h-127.99s-64,110.85-64,110.85Zm170.67-73.91l10.66,18.48,32,55.43-32,55.42-10.67,18.48h-85.33s-10.67-18.48-10.67-18.48l-32-55.42,10.67-18.48h-.01l32-55.42h21.35s-.01,0-.01,0h64.01Z"/>
    <path class="cls-1" d="M309.34,145.15l3.55,6.16,17.78,30.79h42.67s21.33-36.95,21.33-36.95l-3.56-6.16-10.67-18.47-7.11-12.32h-42.66s-21.33,36.95-21.33,36.95Z"/>
  </g>
</svg>